<svg t="1661439354134" class="icon" viewBox="0 0 1024 1024" version="1.1" xmlns="http://www.w3.org/2000/svg" p-id="9131" width="200" height="200"><path d="M428 590c246-90 298-77 473-100-90 147-288 227-288 227s-29-20-45-31c-73 46-197 113-197 113s-75-41-112-72-117-103-117-103 200.565-2.743 286-34z" fill="#FAE1C5" p-id="9132"></path><path d="M482.708 677.966c-5.808 0-11.567-2.518-15.521-7.373-6.974-8.565-5.684-21.163 2.881-28.137 18.459-15.03 33.745-30.86 45.431-47.052C535.738 567.366 546 537.623 546 507c0-11.046 8.954-20 20-20s20 8.954 20 20c0 39.201-12.808 76.821-38.066 111.815-13.735 19.029-31.436 37.419-52.609 54.658a19.915 19.915 0 0 1-12.617 4.493zM733.013 575c-5.808 0-11.567-2.518-15.521-7.373-6.975-8.565-5.685-21.163 2.881-28.137 22.154-18.039 67.847-66.703 80.938-84.839 23.722-32.864 35.75-67.766 35.75-103.734 0-11.046 8.954-20 20-20s20 8.954 20 20c0 44.547-14.574 87.325-43.316 127.146-16.258 22.523-64.845 73.498-88.115 92.445A19.923 19.923 0 0 1 733.013 575z" fill="#EA952A" p-id="9133"></path><path d="M745.629 163a200.265 200.265 0 0 0-136.476 53.664A200.269 200.269 0 0 0 472.678 163c-52.238 0-101.687 19.99-139.235 56.288-32.033 30.966-52.5 70.974-58.931 114.42A170.62 170.62 0 0 0 259.01 333c-93.738 0-170 76.262-170 170 0 51.245 16.786 100.483 49.892 146.349 18.123 25.105 41.512 49.396 69.519 72.199 39.404 32.084 77.414 52.749 84.634 56.566l79.451 42.001 79.451-42.002c7.22-3.816 45.23-24.481 84.634-56.565a463.63 463.63 0 0 0 14.369-12.196l58.194 30.764 93.647-49.507c8.627-4.562 54.045-29.261 101.104-67.577 33.404-27.2 61.284-56.151 82.866-86.049C926.073 482.537 946 424.125 946 363.372 946 252.886 856.114 163 745.629 163zM511.335 690.529c-36.486 29.708-71.438 48.714-78.073 52.222l-60.756 32.118-60.756-32.117c-6.636-3.509-41.587-22.515-78.074-52.223-25.292-20.593-46.267-42.325-62.34-64.592C143.25 587.028 129.01 545.666 129.01 503c0-71.682 58.318-130 130-130 37.777 0 73.631 16.403 98.368 45.004l15.127 17.489 15.127-17.489C412.37 389.403 448.224 373 486 373c71.682 0 130 58.318 130 130 0 42.667-14.24 84.029-42.325 122.937-16.072 22.266-37.047 43.999-62.34 64.592zM854.339 513.57c-19.533 27.062-44.999 53.453-75.688 78.442-44.144 35.942-86.505 58.982-94.546 63.234l-74.95 39.622-28.159-14.886c9.234-10.042 17.63-20.269 25.113-30.636C639.214 603.484 656 554.246 656 503c0-93.738-76.262-170-170-170a169.902 169.902 0 0 0-113.495 43.434 169.973 169.973 0 0 0-58.788-34.389C324.094 262.931 391.167 203 472.678 203c46.602 0 90.833 20.235 121.349 55.517l15.128 17.489 15.126-17.49C654.796 223.235 699.025 203 745.629 203 834.058 203 906 274.942 906 363.372c0 52.175-17.381 102.709-51.661 150.198z" fill="#EA952A" p-id="9134"></path></svg>